<?xml version="1.0" standalone="no"?>
<!DOCTYPE svg PUBLIC "-//W3C//DTD SVG 20010904//EN"
 "http://www.w3.org/TR/2001/REC-SVG-20010904/DTD/svg10.dtd">
<svg version="1.0" xmlns="http://www.w3.org/2000/svg"
 width="300.000000pt" height="225.000000pt" viewBox="0 0 300.000000 225.000000"
 preserveAspectRatio="xMidYMid meet">
<metadata>
Created by potrace 1.10, written by Peter Selinger 2001-2011
</metadata>
<g transform="translate(0.000000,225.000000) scale(0.050000,-0.050000)"
fill="#000000" stroke="none">
<path d="M120 4471 c0 -16 -15 -37 -33 -47 -22 -13 -25 -23 -10 -32 13 -8 23
-4 23 8 0 12 9 17 20 10 11 -7 20 1 20 18 0 16 16 39 35 50 31 19 30 21 -10
21 -26 1 -45 -11 -45 -28z"/>
<path d="M396 4476 c30 -30 31 -89 3 -107 -12 -7 -33 3 -47 22 -26 35 -72 26
-72 -15 0 -14 9 -13 28 2 22 19 27 16 25 -12 -4 -43 65 -39 99 5 12 16 29 22
38 14 8 -8 4 6 -9 33 -20 38 -20 50 2 64 19 12 9 17 -32 18 -46 0 -54 -5 -35
-24z"/>
<path d="M695 4487 c34 -14 31 -43 -6 -81 -17 -17 -26 -35 -20 -41 5 -6 27 11
49 37 39 49 25 100 -25 96 -15 -1 -14 -5 2 -11z"/>
<path d="M1179 4471 c13 -16 20 -36 15 -45 -6 -9 11 -17 38 -19 31 -2 48 8 48
27 0 19 -12 26 -30 19 -16 -7 -30 -4 -30 5 0 10 -15 23 -33 30 -27 11 -28 8
-8 -17z"/>
<path d="M2328 4455 c-21 -25 -29 -38 -20 -30 10 8 32 3 49 -10 26 -21 28 -19
17 10 -14 38 1 44 44 17 15 -10 22 -27 15 -38 -7 -11 0 -51 16 -89 16 -39 24
-75 17 -82 -6 -7 3 -18 21 -25 18 -7 33 -21 33 -31 0 -11 -9 -14 -20 -7 -11 7
-14 -1 -8 -19 15 -37 68 -42 68 -6 1 17 7 15 20 -5 11 -16 20 -21 20 -10 1 22
39 -31 40 -55 0 -8 -11 -13 -24 -10 -16 3 -23 -17 -19 -57 3 -37 -7 -71 -26
-87 -21 -17 -31 -19 -31 -3 0 12 -22 22 -50 22 -38 0 -50 11 -50 42 0 41 -1
41 -39 -5 -22 -26 -40 -36 -40 -23 -1 13 -19 29 -42 36 -35 11 -37 18 -15 46
16 19 17 26 3 18 -13 -8 -28 -3 -33 11 -7 17 -18 13 -39 -14 -28 -37 -31 -35
-65 35 -30 65 -61 85 -115 76 -8 -1 -15 8 -15 20 0 13 -18 18 -39 12 -25 -6
-57 8 -89 39 -44 44 -48 45 -38 9 5 -22 25 -44 43 -50 18 -5 6 -8 -27 -6 -33
1 -73 -5 -88 -15 -20 -12 -24 -10 -12 9 11 18 8 21 -10 10 -16 -10 -35 -5 -48
13 -28 37 -101 67 -79 33 39 -64 80 -96 121 -96 26 0 46 -8 46 -19 0 -11 -24
-11 -58 -2 -38 11 -66 9 -81 -6 -15 -15 -27 -16 -37 -2 -22 31 -121 69 -133
51 -15 -25 29 -55 103 -69 39 -7 70 -3 78 11 10 15 21 12 37 -9 25 -35 127
-52 166 -28 16 10 25 4 25 -16 0 -17 10 -31 23 -31 12 0 35 -16 49 -35 22 -29
30 -30 45 -8 19 29 85 7 88 -29 2 -36 45 -88 73 -88 16 0 45 -15 65 -33 30
-27 41 -28 68 -6 39 32 75 -8 61 -66 -6 -26 4 -35 40 -35 52 0 61 19 25 55
-18 18 -17 31 2 54 26 32 71 23 50 -10 -6 -11 7 -19 29 -19 30 0 38 9 29 35
-8 24 -2 21 21 -9 22 -29 45 -40 68 -31 30 11 31 8 7 -21 -16 -19 -20 -34 -10
-35 9 0 -8 -14 -39 -31 -64 -35 -62 -81 3 -72 52 8 56 -31 8 -68 -33 -25 -33
-27 0 -27 21 -1 35 -16 35 -41 0 -24 13 -40 32 -40 23 0 27 -8 15 -26 -9 -14
-2 -10 16 9 17 20 40 29 49 21 9 -8 3 3 -13 25 -16 21 -19 33 -6 25 24 -15 61
58 79 156 6 33 19 96 30 140 10 44 23 96 28 116 4 19 -1 30 -11 23 -11 -6 -25
2 -31 20 -17 44 -48 18 -48 -40 0 -28 -12 -49 -28 -49 -15 0 -38 -13 -52 -30
-34 -41 -60 -38 -60 9 0 22 -11 62 -24 91 -19 43 -17 57 10 85 22 21 34 25 34
9 0 -13 15 -24 32 -24 26 0 28 6 10 27 -13 16 -17 56 -10 95 12 65 11 66 -19
28 -32 -40 -32 -40 -32 1 -1 23 7 50 17 60 10 11 3 33 -18 55 -33 34 -34 33
-25 -15 7 -39 1 -51 -25 -51 -24 0 -30 10 -21 35 11 28 8 30 -12 10 -38 -38
-61 -30 -47 16 7 22 2 54 -11 70 -19 23 -17 29 11 29 22 0 30 10 23 30 -7 17
-1 30 11 30 13 0 6 13 -15 29 -49 37 -137 42 -117 6 11 -20 8 -20 -13 0 -37
34 -47 32 -91 -20z"/>
<path d="M2905 4472 c43 -32 46 -55 5 -39 -40 15 -38 2 10 -53 41 -47 51 -80
25 -80 -8 0 -15 -27 -15 -60 0 -33 8 -60 18 -60 10 0 13 -6 6 -13 -27 -27 29
-87 82 -87 37 1 46 6 27 18 -21 13 -21 18 3 28 16 6 39 1 52 -12 38 -38 26 50
-16 113 -26 40 -33 73 -23 110 27 98 -52 184 -104 113 -8 -12 -15 -7 -15 11 0
17 -19 32 -45 34 -41 2 -42 1 -10 -23z"/>
<path d="M5506 4478 c24 -14 32 -34 23 -62 -25 -79 -24 -106 7 -142 29 -33 29
-35 -3 -22 -30 11 -35 1 -35 -74 0 -149 -7 -218 -23 -218 -8 0 -15 11 -15 23
0 13 -6 18 -13 11 -7 -7 -1 -27 13 -44 22 -26 20 -29 -12 -19 -36 12 -36 11
-2 -17 35 -29 48 -254 16 -254 -11 0 -12 -112 -3 -350 4 -97 5 -98 29 -45 13
31 30 50 37 43 7 -6 7 7 1 30 -7 29 -1 42 19 42 28 0 47 35 67 125 4 19 -1 35
-11 35 -10 0 -21 -24 -25 -53 -6 -58 -56 -91 -56 -39 0 18 9 32 20 32 33 0 22
57 -15 78 -31 18 -31 21 -2 21 47 1 58 47 39 152 -15 77 -11 97 22 135 21 24
33 32 25 16 -10 -18 -5 -24 13 -18 15 5 31 29 35 54 5 40 2 42 -35 19 -63 -40
-101 7 -44 56 44 38 60 100 19 75 -16 -10 -20 -3 -10 20 7 20 13 39 13 43 0 4
13 3 30 -4 16 -6 25 -19 19 -29 -6 -10 5 -12 24 -4 31 12 30 15 -9 33 -24 10
-44 28 -44 39 0 10 -13 8 -30 -6 -25 -20 -30 -19 -30 7 0 17 18 41 41 53 22
12 35 30 30 39 -6 9 3 28 19 41 34 28 2 90 -34 67 -13 -7 -11 -18 4 -27 13 -8
16 -20 6 -26 -35 -22 -61 15 -44 62 14 37 27 44 63 33 40 -13 42 -11 17 18
-15 18 -19 33 -9 33 9 0 4 9 -13 20 -16 11 -61 19 -100 19 -58 0 -64 -4 -34
-21z"/>
<path d="M1556 4386 c-41 -26 -52 -46 -46 -90 5 -39 -2 -56 -22 -56 -16 0 -34
-13 -41 -30 -6 -16 -26 -30 -44 -30 -29 1 -29 3 -3 20 26 17 25 19 -5 20 -19
0 -35 -12 -35 -26 0 -14 -17 -25 -39 -25 -21 0 -35 5 -31 11 4 6 -12 13 -35
15 -38 3 -39 0 -10 -28 55 -55 209 -54 246 2 21 31 44 43 70 37 30 -8 39 0 39
32 0 23 -13 42 -28 42 -40 0 -54 53 -21 81 16 13 42 18 59 12 18 -7 30 0 30
18 0 37 -17 36 -84 -5z"/>
<path d="M3620 4392 c0 -18 -15 -32 -34 -32 -24 0 -28 -6 -12 -22 25 -25 110
19 100 51 -11 33 -54 35 -54 3z"/>
<path d="M5855 4389 c-32 -18 -55 -22 -55 -10 0 12 -9 21 -20 21 -11 0 -20
-18 -20 -40 0 -48 8 -49 68 -9 26 17 55 29 65 27 59 -10 115 4 87 22 -40 26
-60 24 -125 -11z"/>
<path d="M170 4385 c-28 -21 -23 -96 5 -90 13 2 19 -8 12 -25 -6 -17 -1 -30
11 -30 26 0 30 53 4 69 -10 6 -14 29 -8 51 11 43 7 48 -24 25z"/>
<path d="M505 4285 c-41 -14 -89 -120 -63 -136 12 -8 29 -3 38 11 12 19 18 18
26 -3 8 -20 11 -21 12 -1 1 14 -11 30 -28 37 -16 6 -25 19 -19 29 7 10 19 14
28 8 9 -5 22 5 29 23 15 39 11 45 -23 32z"/>
<path d="M640 4268 c0 -18 -16 -46 -35 -60 -22 -17 -26 -27 -9 -27 14 -1 33
-21 42 -46 15 -38 17 -34 18 29 0 40 6 82 12 93 7 11 4 26 -8 33 -11 7 -20 -3
-20 -22z"/>
<path d="M1131 4249 c-38 -29 -38 -29 0 -58 46 -33 8 -53 -134 -70 -34 -3 -30
-58 4 -67 24 -6 34 -2 26 11 -8 13 9 17 48 11 46 -6 58 -2 50 19 -6 16 7 32
32 39 45 11 60 46 21 46 -13 0 -19 21 -13 50 5 28 8 50 7 49 -1 0 -19 -13 -41
-30z"/>
<path d="M929 4242 c14 -23 -40 -44 -76 -30 -35 13 -60 -49 -34 -81 12 -14 15
-31 7 -38 -7 -7 -2 -13 12 -13 13 0 19 -9 12 -20 -7 -11 1 -14 19 -8 41 16 39
25 -14 68 -26 21 -37 44 -27 53 9 9 21 6 26 -8 5 -14 18 -25 29 -25 11 0 14 9
8 19 -15 24 58 65 81 45 9 -8 5 2 -10 21 -28 36 -53 49 -33 17z"/>
<path d="M260 4198 c0 -11 -20 -18 -45 -14 -28 4 -46 -6 -51 -27 -7 -35 60
-32 108 6 12 9 28 11 35 3 7 -7 13 -3 13 9 0 11 -13 26 -30 32 -16 7 -30 2
-30 -9z"/>
<path d="M445 4079 c-25 -10 -45 -27 -45 -38 0 -12 -13 -21 -30 -21 -16 0 -30
-11 -31 -25 0 -14 -13 -8 -30 14 -16 21 -30 35 -31 30 0 -5 -4 -24 -7 -41 -4
-18 1 -45 11 -60 12 -20 17 -21 18 -3 0 14 16 25 36 25 20 0 55 20 77 45 23
25 58 56 79 69 45 28 17 31 -47 5z"/>
<path d="M901 4000 c-16 -9 -9 -19 22 -27 39 -11 42 -16 17 -33 -22 -14 -23
-19 -4 -20 15 0 21 -9 14 -20 -7 -11 1 -14 19 -8 17 7 31 20 31 30 0 34 -75
93 -99 78z"/>
<path d="M5815 4004 c-19 -4 -35 -17 -35 -29 0 -12 5 -16 12 -10 7 7 32 5 57
-5 32 -12 44 -9 44 11 0 15 -6 23 -15 18 -8 -5 -18 -2 -21 7 -4 8 -23 12 -42
8z"/>
<path d="M1375 3896 c-83 -29 -66 -53 35 -49 49 1 90 10 90 18 0 8 16 15 35
14 33 0 33 -1 0 -21 -37 -21 -48 -78 -15 -78 11 0 20 -9 20 -20 0 -11 -19 -20
-41 -20 -23 0 -36 8 -30 18 13 22 -45 47 -71 31 -10 -7 0 -27 23 -45 22 -19
43 -49 46 -67 3 -18 17 -47 31 -65 15 -18 24 -33 19 -33 -84 -17 -98 -17 -86
3 15 24 -24 57 -66 58 -14 0 -25 -18 -25 -40 0 -22 10 -40 21 -40 12 0 17 -7
12 -16 -6 -9 7 -17 29 -19 21 -1 52 -17 70 -34 35 -36 57 -41 37 -10 -7 12 -1
20 14 17 60 -11 137 47 137 103 0 50 -44 91 -77 71 -7 -4 -15 19 -17 53 l-5
61 40 -43 c52 -55 107 -58 93 -4 -5 23 4 51 22 65 26 21 29 21 16 0 -10 -16 3
-40 36 -66 65 -51 171 -266 158 -319 -7 -26 -1 -39 20 -39 17 0 43 -11 58 -25
68 -64 96 -34 49 52 -26 46 -43 94 -38 108 5 15 -3 21 -21 14 -42 -16 -59 21
-44 92 11 48 19 56 41 38 14 -12 22 -35 16 -50 -6 -16 -1 -29 11 -29 12 0 22
9 22 20 0 11 10 20 21 20 12 0 16 -8 10 -19 -6 -10 -2 -24 10 -32 12 -7 17
-24 12 -38 -8 -20 1 -21 37 -4 55 26 46 53 -16 53 -36 1 -38 4 -14 20 22 14
23 19 4 20 -15 0 -20 10 -12 23 9 15 5 18 -9 9 -16 -10 -38 18 -65 78 -28 63
-50 90 -70 82 -15 -6 -28 -3 -28 6 0 64 -417 123 -545 78z"/>
<path d="M1169 3841 c6 -10 -7 -24 -29 -31 -23 -7 -35 -23 -27 -35 8 -14 2
-17 -17 -10 -30 11 -76 -17 -76 -47 0 -35 82 -32 101 4 18 34 79 55 79 27 0
-19 -60 -74 -60 -55 0 9 -9 3 -20 -14 -22 -34 -27 -94 -7 -74 7 8 23 6 35 -4
14 -11 32 -7 48 10 21 23 20 28 -5 28 -17 0 -31 8 -31 18 0 23 60 72 61 49 0
-9 13 -1 28 19 22 29 31 31 44 10 23 -35 100 -77 115 -61 25 25 12 69 -18 58
-18 -7 -30 0 -30 18 0 16 -12 29 -28 29 -15 0 -32 18 -38 40 -6 22 -21 40 -33
40 -13 0 -17 -11 -9 -25 11 -20 8 -20 -13 0 -31 29 -87 34 -70 6z"/>
<path d="M237 3755 c-21 -41 -20 -42 10 -18 29 24 33 23 33 -7 0 -29 5 -31 30
-10 23 19 25 32 8 53 -32 38 -53 34 -81 -18z"/>
<path d="M2966 3745 c-46 -103 -88 -324 -69 -360 10 -19 24 -69 31 -110 16
-86 47 -94 107 -30 80 86 79 149 -3 188 -113 54 -88 112 38 88 49 -10 60 -22
59 -66 -1 -73 40 -70 71 4 27 65 -7 271 -41 250 -21 -12 -102 31 -125 66 -24
38 -42 30 -68 -30z"/>
<path d="M140 3740 c0 -11 -22 -20 -50 -20 -56 0 -67 -29 -18 -48 49 -19 92
-14 77 9 -7 11 -2 34 12 50 17 20 17 29 1 29 -12 0 -22 -9 -22 -20z"/>
<path d="M820 3721 c0 -10 -11 -30 -25 -45 -48 -51 -85 -104 -63 -91 12 8 33
-8 47 -33 24 -46 121 -107 121 -77 -1 34 -37 69 -58 56 -46 -28 -58 74 -17
143 22 38 30 66 17 66 -12 0 -22 -8 -22 -19z"/>
<path d="M902 3666 c-1 -13 7 -29 18 -36 12 -7 17 -19 12 -26 -4 -8 18 -14 50
-14 32 0 61 10 66 23 6 14 -6 18 -33 12 -30 -8 -37 -4 -25 15 12 20 5 23 -26
15 -23 -6 -46 0 -51 12 -7 17 -10 16 -11 -1z"/>
<path d="M240 3527 c1 -31 4 -32 20 -7 11 17 20 20 20 7 0 -36 69 -44 122 -15
30 17 37 27 18 28 -16 1 -64 6 -105 12 -63 10 -75 6 -75 -25z"/>
<path d="M2163 3478 c-14 -23 -16 -36 -4 -29 11 7 21 3 21 -10 0 -18 8 -18 30
1 17 14 30 37 30 52 0 42 -47 33 -77 -14z"/>
<path d="M1860 3460 c0 -11 -17 -20 -39 -20 -21 0 -44 -9 -52 -21 -8 -13 -21
-14 -36 -3 -57 46 -128 39 -128 -11 0 -34 6 -42 22 -26 15 15 35 6 69 -34 45
-53 47 -53 37 -8 -8 35 -3 43 19 35 17 -7 25 -3 18 8 -7 11 9 20 35 20 46 0
95 33 95 64 0 9 -9 16 -20 16 -11 0 -20 -9 -20 -20z"/>
<path d="M5660 3417 c0 -20 0 -41 0 -47 0 -5 7 -9 15 -8 8 1 13 10 10 20 -3
10 4 18 15 18 11 0 20 12 20 27 0 14 -13 26 -30 26 -16 0 -30 -16 -30 -36z"/>
<path d="M2235 3428 c-6 -6 -23 -13 -38 -15 -15 -2 -27 -13 -27 -23 0 -11 8
-17 18 -14 10 3 7 -8 -7 -25 -17 -21 -19 -31 -3 -31 29 0 28 -66 -2 -96 -19
-19 -18 -24 1 -24 14 0 20 -9 13 -20 -7 -11 -3 -20 7 -20 29 0 50 75 51 185 1
52 1 95 0 95 -1 0 -7 -5 -13 -12z"/>
<path d="M2431 3383 c-13 -41 24 -123 55 -123 9 0 9 11 1 25 -9 14 -19 47 -23
75 -9 65 -18 72 -33 23z"/>
<path d="M2690 3363 c6 -5 -6 -28 -25 -50 -34 -38 -33 -39 6 -29 36 9 40 2 33
-47 -5 -33 1 -57 14 -57 12 0 18 -20 13 -45 -4 -25 -9 -57 -10 -71 0 -15 -9
-21 -19 -15 -10 6 -8 -11 5 -37 17 -37 29 -44 48 -28 33 28 57 5 31 -29 -54
-68 -46 -120 16 -108 37 8 55 5 48 -7 -7 -11 -25 -20 -41 -20 -16 0 -29 -14
-29 -31 0 -23 12 -28 40 -19 26 8 40 4 40 -14 1 -19 6 -18 20 4 11 17 20 26
21 20 1 -5 5 -26 9 -45 3 -19 -2 -35 -13 -35 -11 0 -14 -8 -8 -18 6 -10 0 -24
-14 -31 -14 -6 -5 -8 20 -3 37 7 41 2 26 -27 -13 -23 -9 -53 12 -93 16 -32 29
-60 28 -63 -9 -33 3 -50 19 -25 11 17 20 20 20 7 0 -12 -13 -33 -30 -47 -25
-21 -30 -18 -30 16 0 49 -31 74 -51 42 -8 -12 -2 -30 13 -39 23 -14 21 -28 -8
-78 -22 -37 -27 -61 -14 -61 14 0 17 -17 9 -45 -35 -111 -35 -108 -11 -75 16
22 21 23 22 4 0 -15 9 -21 20 -14 11 7 20 5 20 -4 0 -31 -83 -68 -124 -55 -46
15 -275 -6 -311 -28 -25 -16 -2 -159 30 -181 27 -18 46 -82 24 -82 -10 0 -19
14 -19 31 0 17 -9 26 -20 19 -11 -7 -20 5 -20 27 0 40 -28 46 -75 16 -14 -9
-21 -24 -14 -34 6 -10 -4 -13 -22 -6 -19 7 -28 27 -23 49 5 20 -1 41 -13 47
-13 6 -3 8 22 3 66 -12 37 19 -63 67 -100 49 -168 133 -135 166 15 15 11 29
-13 48 -31 23 -29 26 16 28 l50 3 -50 15 c-67 20 -106 -11 -79 -61 19 -36 11
-47 -27 -40 -10 2 -12 -5 -5 -16 6 -10 0 -23 -14 -29 -16 -6 -13 -10 8 -11 18
-1 38 -15 44 -32 7 -16 25 -30 41 -30 16 0 35 -17 41 -38 9 -26 28 -37 61 -33
26 3 53 -7 58 -22 6 -15 0 -27 -14 -28 -13 0 -8 -12 12 -28 20 -15 36 -33 35
-39 -4 -36 1 -52 14 -48 8 3 45 -6 82 -19 67 -24 80 -81 16 -69 -40 7 -44 -47
-5 -62 17 -7 23 -30 17 -61 -6 -33 -19 -46 -37 -39 -18 7 -28 -4 -28 -31 0
-63 116 -54 133 10 6 26 19 47 29 47 9 0 8 23 -2 51 -25 65 -25 88 0 49 17
-26 19 -25 20 3 0 19 7 37 15 42 8 5 4 6 -10 2 -18 -4 -17 6 4 39 29 44 31 50
31 102 0 44 127 92 247 92 134 0 188 19 278 99 71 62 112 144 68 139 -64 -8
-73 4 -70 89 2 48 -4 99 -13 113 -10 16 -8 21 5 13 11 -7 26 0 32 16 6 17 4
34 -6 40 -9 6 -27 68 -39 137 -12 70 -49 182 -82 251 -33 68 -60 135 -60 150
0 14 -28 54 -62 89 -37 38 -58 76 -51 94 7 16 3 30 -7 30 -22 0 -120 96 -120
118 0 8 -13 15 -30 15 -16 0 -25 -4 -20 -10z"/>
<path d="M911 3321 c-7 -11 -25 -15 -40 -9 -15 6 -33 1 -40 -10 -8 -14 0 -17
23 -9 21 7 13 -8 -22 -37 -34 -29 -53 -61 -46 -77 8 -22 11 -21 12 5 3 50 79
88 94 47 7 -17 27 -31 44 -31 26 0 25 5 -5 27 -28 20 -31 31 -12 43 14 8 31 6
38 -5 7 -11 30 -13 51 -6 37 13 36 16 -9 47 -55 39 -72 42 -88 15z"/>
<path d="M293 3283 c-41 -45 -42 -63 -3 -63 17 0 30 17 30 39 0 21 16 42 35
47 28 8 29 10 3 12 -17 1 -47 -14 -65 -35z"/>
<path d="M2064 3252 c-27 -61 -17 -93 18 -58 12 12 18 42 15 68 -7 45 -8 45
-33 -10z"/>
<path d="M147 3170 c-20 -15 -29 -34 -20 -43 9 -9 28 -1 43 19 26 36 27 36 34
0 6 -32 9 -33 20 -3 18 45 -30 62 -77 27z"/>
<path d="M1475 3158 c-36 -39 -31 -45 30 -39 25 3 31 -6 22 -33 -17 -46 1 -30
32 31 16 31 17 43 3 34 -12 -7 -22 0 -22 18 0 40 -22 37 -65 -11z"/>
<path d="M7 3151 c-22 -59 6 -75 39 -24 31 46 31 53 4 53 -17 0 -36 -13 -43
-29z"/>
<path d="M2047 3130 c-6 -16 -19 -25 -29 -19 -10 6 -18 -7 -18 -29 0 -22 7
-44 16 -49 30 -19 59 17 59 72 0 61 -10 70 -28 25z"/>
<path d="M5113 3076 c-10 -82 -74 -1319 -73 -1410 l0 -43 -455 9 c-535 11
-632 20 -618 57 15 41 -28 71 -103 71 -55 0 -66 6 -56 33 19 49 -25 87 -100
87 -55 0 -68 8 -68 40 0 62 -95 38 -160 -41 -60 -72 -572 -63 -600 11 -20 52
-49 64 -70 30 -7 -11 -32 -21 -56 -22 -24 0 -33 -6 -20 -11 17 -7 10 -33 -25
-88 -27 -43 -49 -101 -49 -130 0 -28 -8 -46 -18 -40 -10 6 -23 -2 -29 -17 -16
-44 42 -55 118 -23 60 25 72 25 99 -2 27 -27 30 -26 30 8 0 20 -9 46 -20 57
-14 14 -5 34 28 63 89 77 149 -81 63 -167 -17 -17 -31 -45 -31 -62 0 -18 -12
-26 -28 -20 -15 6 -47 -7 -70 -28 -23 -22 -51 -35 -62 -28 -11 7 -20 3 -20 -9
0 -11 7 -21 16 -21 8 0 16 -16 17 -35 9 -160 87 -475 87 -348 0 14 9 20 20 13
28 -17 -37 -110 -69 -98 -14 6 -35 39 -46 74 l-19 64 -23 -56 -23 -56 -51 51
c-28 28 -46 60 -39 71 7 11 3 20 -9 20 -11 0 -21 16 -22 35 0 33 -2 33 -21 -1
-15 -26 -14 -44 3 -65 13 -16 16 -30 6 -31 -92 -12 -130 -39 -116 -80 16 -51
-8 -122 -36 -105 -14 9 -17 -2 -10 -30 8 -29 2 -43 -17 -43 -39 0 -35 -20 17
-77 25 -27 34 -43 21 -36 -13 8 -30 2 -38 -12 -8 -14 -7 -19 1 -11 9 8 33 6
54 -5 29 -16 37 -13 37 12 0 21 11 29 30 22 23 -9 30 4 30 59 0 45 8 66 22 57
13 -8 20 2 17 24 -14 136 24 220 72 157 27 -35 27 -40 -5 -53 -32 -13 -32 -14
4 -16 22 -1 54 -11 70 -23 23 -16 17 -18 -25 -9 -65 14 -75 -26 -21 -80 19
-19 35 -52 37 -73 1 -22 15 -48 31 -58 15 -9 19 -18 9 -18 -10 0 -8 -11 6 -25
20 -20 29 -19 46 5 17 25 19 24 10 -5 -17 -52 32 -43 87 15 26 27 36 50 23 50
-12 0 -23 -9 -23 -19 0 -11 -13 -15 -28 -9 -21 8 -24 26 -11 70 9 32 12 89 6
125 -9 53 -1 77 38 116 26 27 49 62 49 78 1 16 7 53 15 82 20 75 -21 90 -46
17 -12 -33 -25 -60 -31 -60 -5 0 0 28 12 62 15 44 15 67 -2 84 -32 32 -27 63
5 36 22 -18 27 -8 23 57 -4 65 3 82 37 93 56 18 115 93 92 117 -11 10 -18 33
-17 50 0 17 5 21 11 8 5 -12 26 -18 47 -13 31 8 35 18 20 47 -15 28 -12 38 14
43 30 5 29 12 -11 49 l-45 42 51 -10 c28 -5 51 -22 51 -38 0 -16 14 -34 31
-40 17 -7 30 -31 28 -55 -5 -67 3 -125 14 -97 6 14 25 25 44 25 19 0 24 -7 13
-15 -30 -22 -24 -90 8 -101 20 -7 25 3 17 35 -8 29 -1 47 20 56 25 9 23 15
-13 28 -49 18 -55 132 -8 122 18 -3 20 8 8 40 -17 44 -14 45 90 38 69 -4 108
-16 108 -32 0 -13 14 -24 30 -24 17 0 30 16 30 36 0 23 14 37 38 37 23 0 37
-13 35 -35 -2 -27 13 -35 67 -35 89 0 110 -36 30 -51 -60 -11 -60 -11 15 -21
45 -6 76 -2 76 11 1 12 9 3 18 -19 12 -27 8 -47 -11 -62 -32 -25 -38 -57 -8
-38 11 7 20 -5 20 -27 0 -21 14 -44 31 -51 19 -7 25 -22 16 -37 -8 -13 -18
-83 -21 -155 -3 -71 -9 -157 -14 -190 -5 -33 -9 -71 -10 -85 -1 -14 -13 -23
-27 -20 -14 3 -23 -6 -20 -20 3 -14 -9 -25 -25 -25 -36 0 -40 33 -5 47 19 7
18 15 -4 30 -35 25 -88 -73 -58 -106 27 -30 20 -71 -13 -71 -16 0 -30 -9 -30
-20 0 -11 -13 -20 -30 -20 -16 0 -30 13 -30 29 0 16 -10 35 -23 43 -16 10 -20
2 -13 -24 6 -21 14 -51 19 -68 4 -16 13 -35 21 -40 16 -13 -42 -140 -64 -140
-24 0 -66 116 -53 149 7 17 25 25 42 19 17 -7 31 -2 31 10 0 12 -7 21 -15 20
-44 -7 -86 4 -76 21 6 10 3 24 -8 30 -10 7 -15 24 -9 38 5 14 -9 66 -32 114
-23 49 -35 71 -29 49 28 -88 34 -190 12 -190 -13 0 -23 -14 -23 -31 0 -22 -15
-15 -50 23 -27 30 -50 45 -50 33 0 -11 13 -31 30 -45 16 -13 25 -33 19 -42 -6
-10 0 -18 15 -18 14 0 27 -23 29 -50 1 -28 -5 -50 -15 -50 -10 0 -18 9 -18 20
0 26 -54 26 -70 0 -7 -11 1 -14 19 -8 20 8 31 1 31 -20 0 -18 -4 -32 -8 -32
-31 0 -195 83 -185 94 31 31 -31 65 -74 41 -24 -13 -50 -21 -59 -19 -10 3 -11
-5 -4 -16 10 -15 23 -14 43 3 48 39 74 -22 31 -70 -19 -20 -31 -43 -26 -50 4
-7 -11 -22 -34 -32 -23 -11 -40 -33 -38 -50 2 -17 -5 -33 -16 -36 -11 -3 -20
6 -20 20 0 26 -62 59 -158 83 -53 13 -56 10 -47 -37 10 -52 -14 -72 -31 -26
-11 31 -114 -59 -114 -100 0 -15 -10 -21 -21 -14 -15 9 -17 -10 -8 -57 8 -46
4 -75 -12 -85 -16 -10 -20 -7 -11 8 8 13 6 23 -5 23 -11 0 -23 -11 -28 -24 -5
-15 -23 -8 -51 20 -46 46 -76 59 -54 24 7 -11 1 -25 -14 -30 -14 -6 -28 -48
-31 -95 -3 -47 -14 -88 -25 -92 -11 -3 -20 -15 -20 -26 0 -11 9 -14 20 -7 11
7 20 4 20 -7 0 -62 177 19 179 82 1 8 13 15 28 15 32 0 113 83 113 116 0 13 7
24 16 24 8 0 12 37 7 82 -4 46 0 79 10 74 9 -4 158 -77 330 -162 344 -169 334
-166 424 -126 35 16 86 33 113 39 28 5 72 16 98 25 40 12 47 9 36 -19 -14 -36
12 -41 76 -13 34 15 35 17 5 19 -19 0 -35 9 -35 19 0 34 54 38 161 10 150 -39
212 -38 178 3 -21 26 -19 38 17 74 l43 42 19 -48 c11 -27 20 -38 21 -25 1 23
81 29 81 6 0 -6 42 -12 93 -13 64 -1 98 -12 111 -34 24 -44 49 -42 62 7 13 52
66 52 80 0 6 -22 21 -40 33 -40 13 0 18 9 11 20 -7 11 -4 20 7 20 32 0 42 -56
12 -68 -38 -14 -37 -45 1 -45 17 0 30 11 30 26 0 55 146 82 177 32 8 -12 41
-26 73 -31 45 -6 59 -17 54 -46 -3 -23 1 -29 10 -16 9 12 32 20 51 17 20 -3
49 8 65 24 29 29 40 15 33 -37 -2 -8 12 -9 30 -2 25 9 29 3 18 -31 -12 -37 -6
-43 41 -43 52 0 53 2 19 27 -29 21 -31 31 -11 43 15 9 32 4 43 -15 11 -20 33
-27 60 -20 30 8 39 4 29 -12 -19 -30 56 -31 112 -1 28 15 45 15 54 2 7 -12
102 -21 217 -22 l205 -2 0 59 c0 73 37 63 -590 161 -900 141 -1399 223 -1406
230 -6 6 16 227 46 467 8 66 7 67 -31 32 -45 -41 -44 227 1 282 12 14 14 30 5
36 -13 8 9 213 33 313 12 47 37 -68 31 -139 l-8 -91 22 75 c25 88 -30 84 627
56 242 -10 627 -25 855 -32 l415 -14 0 64 c0 37 -8 58 -20 51 -11 -7 -20 -3
-20 9 0 11 -14 21 -31 21 -17 0 -27 -7 -22 -15 5 -8 -58 -18 -139 -21 -81 -3
-148 1 -148 10 0 9 -101 14 -225 12 -210 -3 -253 6 -255 55 0 6 194 7 432 2
l431 -7 -7 47 c-4 26 -17 45 -29 43 -14 -3 -19 12 -13 35 6 21 19 39 28 39 10
0 18 25 18 55 0 30 -7 46 -15 34 -8 -11 -24 -20 -35 -19 -131 12 -496 37 -550
39 -38 2 -100 5 -137 7 l-66 4 11 135 c6 74 12 155 14 179 2 38 8 40 40 20 44
-27 48 -47 13 -61 -20 -8 -20 -10 0 -11 13 -1 36 16 50 38 13 22 32 40 41 40
9 0 9 -11 1 -25 -9 -15 4 -12 33 7 26 17 57 58 69 90 25 69 101 88 117 29 13
-50 -39 -123 -77 -108 -18 7 -29 -1 -29 -21 0 -38 -6 -37 75 -13 65 18 81 -61
20 -101 -10 -7 48 -19 128 -27 203 -19 237 -29 237 -72 0 -48 -40 -72 -62 -37
-14 22 -17 21 -18 -7 0 -22 15 -35 40 -35 22 0 40 -11 40 -24 0 -17 6 -18 21
-3 35 35 51 314 17 303 -15 -6 -26 -29 -23 -52 3 -30 -4 -39 -25 -31 -19 7
-26 27 -19 54 14 57 -69 90 -199 79 l-94 -9 13 72 c17 87 -13 129 -81 116 -32
-6 -50 -1 -50 15 0 19 -6 20 -28 1 -23 -18 -31 -15 -41 16 -13 41 -71 76 -71
42 0 -10 11 -19 25 -20 14 0 9 -10 -11 -21 -29 -17 -31 -27 -13 -50 18 -21 18
-28 1 -28 -13 0 -21 -15 -18 -33 3 -18 -7 -37 -22 -43 -19 -6 -24 1 -16 23 7
17 3 37 -8 44 -13 8 -12 22 3 41 18 21 18 28 0 28 -13 0 -18 8 -12 19 6 10 1
25 -12 33 -14 8 -18 6 -10 -8 8 -11 6 -26 -4 -32 -31 -19 -39 57 -28 242 12
204 16 207 169 192 79 -7 116 -4 116 11 0 23 95 21 133 -3 12 -7 75 -18 139
-25 65 -6 138 -16 163 -21 43 -8 45 -3 45 122 0 90 -8 130 -25 130 -50 1 -609
40 -729 51 l-123 12 -10 -87z m-2631 -2253 c-27 -50 -28 -69 -2 -53 11 7 20
-10 20 -39 0 -28 -9 -51 -20 -51 -11 0 -20 10 -20 21 0 12 -8 16 -18 10 -27
-16 -13 72 19 123 34 54 51 45 21 -11z m1443 -228 c-8 -126 -3 -151 32 -188
22 -23 34 -50 27 -58 -8 -8 1 -10 20 -3 18 6 42 1 52 -12 21 -27 5 -82 -26
-88 -11 -1 -36 -9 -55 -17 -22 -8 -35 -4 -35 11 0 14 -13 19 -31 12 -27 -10
-29 2 -18 75 l13 86 -94 36 c-152 58 -163 167 -24 252 126 77 149 59 139 -106z
m-398 -124 c6 -16 4 -54 -5 -85 -9 -31 -13 -66 -8 -77 4 -12 -11 -38 -34 -59
-35 -31 -40 -32 -40 -4 0 17 -10 38 -21 45 -12 7 -20 1 -18 -14 7 -54 -1 -103
-16 -89 -8 9 -15 26 -15 39 -1 12 -16 22 -34 21 -19 -2 -36 16 -41 45 -5 26 0
47 13 48 12 0 5 13 -15 28 -48 36 -86 21 -102 -40 -26 -108 -104 -24 -88 94 7
49 9 49 360 73 30 2 57 -8 64 -25z"/>
<path d="M1880 3126 c0 -12 -31 -36 -70 -55 -42 -20 -69 -46 -68 -67 2 -31 3
-31 12 1 12 45 58 45 75 1 11 -30 16 -31 31 -6 11 18 11 37 0 48 -11 11 -5 28
16 44 19 13 27 31 19 40 -8 8 -15 5 -15 -6z"/>
<path d="M640 3020 c0 -22 12 -40 28 -40 15 0 32 18 38 40 8 30 0 40 -28 40
-25 0 -38 -14 -38 -40z"/>
<path d="M982 3042 c-23 -15 -23 -23 0 -55 55 -73 99 -45 66 41 -14 36 -26 39
-66 14z"/>
<path d="M1914 3000 c-42 -50 -43 -60 -4 -60 18 0 30 18 30 44 0 40 2 41 26 9
24 -33 26 -33 28 6 4 52 -35 53 -80 1z"/>
<path d="M4540 2980 c20 -13 22 -19 5 -20 -14 0 -23 -11 -20 -25 3 -14 -8 -22
-23 -19 -24 5 -25 1 -2 -26 21 -25 22 -47 6 -96 -60 -175 16 -362 78 -195 l18
50 -55 -50 c-31 -27 -44 -33 -29 -14 15 19 20 35 12 35 -8 0 -3 14 11 31 14
17 38 26 54 20 17 -7 12 9 -14 42 -41 52 -54 127 -26 155 31 31 21 132 -12
132 -29 -1 -29 -3 -3 -20z"/>
<path d="M260 2908 c0 -6 10 -29 22 -52 19 -35 18 -40 -9 -30 -21 8 -28 3 -20
-17 15 -38 40 -37 55 3 20 51 14 83 -18 95 -16 7 -30 7 -30 1z"/>
<path d="M385 2758 c-1 -19 11 -40 26 -46 16 -6 29 -1 29 11 0 14 10 13 30 -3
18 -15 30 -17 30 -4 0 41 -112 82 -115 42z"/>
<path d="M5358 2762 l49 -37 -65 -34 -65 -34 41 -36 c23 -19 42 -46 42 -58 0
-13 19 -23 41 -23 23 0 36 8 30 19 -6 10 -3 23 7 30 10 6 14 28 9 48 -13 47
52 68 100 33 46 -34 41 -68 -15 -120 l-49 -45 49 -26 c44 -23 54 -21 106 29
42 41 70 52 101 42 42 -13 58 97 18 122 -9 5 -10 22 -5 37 6 15 -5 32 -26 38
-61 19 -292 53 -356 52 l-60 0 48 -37z"/>
<path d="M5935 2689 c-6 -7 -28 -15 -48 -18 -20 -4 -34 -17 -31 -31 3 -14 -9
-41 -26 -61 -21 -22 -25 -40 -12 -48 11 -7 15 -25 10 -40 -6 -16 7 -38 30 -50
23 -12 42 -36 42 -52 0 -16 14 -29 30 -29 39 0 38 33 -1 56 -27 15 -25 24 19
66 70 66 65 85 -18 72 -38 -6 -70 -3 -70 7 0 11 18 19 39 19 46 0 94 75 67
102 -10 10 -24 13 -31 7z"/>
<path d="M964 2628 c-2 -33 5 -43 25 -36 43 17 52 63 14 73 -25 7 -36 -4 -39
-37z"/>
<path d="M2790 2655 c-8 -20 -4 -48 10 -65 20 -24 18 -32 -6 -41 -18 -7 -26
-25 -20 -42 9 -25 15 -25 28 -4 10 15 18 17 18 5 0 -12 14 -21 30 -21 32 0 39
17 15 41 -8 9 -16 21 -17 29 -1 7 -7 27 -13 43 -7 17 -16 44 -21 60 -8 25 -12
24 -24 -5z"/>
<path d="M2431 2613 c-25 -18 -30 -31 -15 -41 13 -7 41 5 63 27 47 47 11 57
-48 14z"/>
<path d="M4577 2547 c-23 -25 -51 -41 -60 -35 -9 6 -17 0 -17 -12 0 -12 -10
-16 -22 -9 -16 10 -16 3 -1 -26 12 -22 17 -44 12 -49 -5 -6 15 -9 46 -7 57 3
73 40 38 87 -14 18 -2 32 44 49 67 25 83 48 33 48 -16 0 -49 -20 -73 -46z"/>
<path d="M5263 2573 c-19 -22 -14 -34 22 -58 44 -29 46 -28 44 21 -3 60 -33
77 -66 37z"/>
<path d="M360 2565 c17 -6 36 -20 43 -31 7 -10 23 -13 35 -5 43 26 21 51 -43
49 -36 0 -51 -6 -35 -13z"/>
<path d="M1080 2550 c-45 -24 -46 -29 -14 -41 39 -15 83 14 71 48 -4 13 -26
10 -57 -7z"/>
<path d="M2613 2546 c-8 -7 11 -24 42 -37 39 -16 59 -17 70 -1 25 38 16 58
-15 32 -21 -17 -30 -18 -30 -2 0 24 -45 30 -67 8z"/>
<path d="M4167 2500 c8 -40 4 -60 -12 -60 -16 -1 -15 -7 4 -19 17 -10 23 -25
16 -33 -8 -8 0 -24 17 -37 29 -21 29 -25 0 -50 -21 -17 -32 -18 -32 -3 0 12
-8 22 -18 22 -11 0 -4 -29 13 -64 38 -76 41 -149 9 -210 -29 -53 -31 -88 -3
-46 15 22 19 10 15 -48 -4 -46 4 -81 18 -86 15 -5 23 15 23 58 0 187 9 267 30
281 16 10 15 14 -4 15 -22 0 -23 6 -3 30 18 22 19 45 3 90 -16 45 -15 60 4 60
27 0 30 77 3 120 -13 22 -20 20 -32 -11 -14 -36 -15 -35 -17 6 0 25 -11 45
-23 45 -15 0 -19 -22 -11 -60z"/>
<path d="M2400 2483 c0 -11 -25 -20 -55 -19 -87 2 -105 -3 -105 -25 0 -12 11
-15 25 -6 33 21 77 22 118 3 36 -17 70 34 36 55 -10 6 -19 2 -19 -8z"/>
<path d="M1040 2427 c0 -29 -14 -70 -32 -89 -23 -26 -24 -34 -5 -31 48 7 80
36 70 63 -5 14 -2 33 7 43 9 9 4 29 -12 43 -23 21 -28 17 -28 -29z"/>
<path d="M1465 2419 c-1 -22 8 -39 21 -39 29 1 90 38 69 42 -8 2 -22 4 -30 6
-8 1 -24 9 -36 16 -11 7 -22 -4 -24 -25z"/>
<path d="M2128 2417 c-9 -15 -5 -18 14 -9 15 8 13 3 -5 -12 -29 -24 -29 -32
-4 -67 28 -38 30 -38 50 -2 18 31 25 33 39 10 13 -20 17 -21 18 -1 0 14 -13
30 -30 37 -16 6 -30 24 -30 39 0 34 -32 37 -52 5z"/>
<path d="M158 2396 c-2 -14 -2 -33 0 -41 1 -8 -14 -15 -33 -15 -28 -1 -30 -4
-7 -18 30 -19 82 17 82 55 0 31 -40 49 -42 19z"/>
<path d="M4588 2363 c16 -25 -80 -70 -111 -52 -15 9 -11 -2 8 -24 19 -22 28
-48 20 -57 -8 -9 6 -11 31 -5 38 10 42 7 23 -17 -19 -22 -17 -28 9 -28 19 0
32 16 32 40 0 22 9 40 20 40 11 0 20 10 20 21 0 12 -8 16 -19 10 -10 -6 -24
-3 -30 7 -6 11 -3 25 9 32 26 16 26 50 -1 50 -12 0 -17 -8 -11 -17z"/>
<path d="M2745 2300 c3 -33 96 -75 95 -42 -1 24 -30 55 -64 67 -24 9 -33 2
-31 -25z"/>
<path d="M342 2274 c-2 -29 -9 -32 -41 -15 -23 13 -43 14 -50 2 -17 -27 11
-38 85 -31 68 5 116 30 59 30 -17 0 -36 11 -42 25 -6 15 -10 10 -11 -11z"/>
<path d="M1825 2190 c0 -28 8 -56 18 -62 10 -6 13 -18 7 -28 -6 -9 4 -14 20
-12 36 5 41 42 7 42 -13 0 -25 20 -27 45 -5 64 -25 77 -25 15z"/>
<path d="M359 2098 c-24 -45 -14 -70 20 -49 42 26 65 91 32 91 -16 0 -40 -19
-52 -42z"/>
<path d="M599 2099 c-25 -17 -24 -23 6 -40 19 -12 35 -34 35 -50 0 -16 9 -29
20 -29 26 0 26 34 0 50 -12 7 -17 19 -12 27 19 30 -18 61 -49 42z"/>
<path d="M4 2050 c7 -41 96 -60 96 -20 0 11 -16 20 -35 19 -19 0 -42 9 -51 20
-9 12 -13 4 -10 -19z"/>
<path d="M1177 2058 c-20 -13 -15 -17 19 -18 40 0 43 -5 23 -42 -23 -42 4
-102 28 -63 52 84 4 169 -70 123z"/>
<path d="M286 1944 c6 -35 2 -64 -9 -64 -11 0 -14 -9 -6 -21 9 -15 20 -15 38
0 13 11 33 14 42 6 10 -8 6 0 -8 19 -15 19 -21 43 -15 53 6 10 -3 30 -20 45
-28 23 -30 18 -22 -38z"/>
<path d="M909 1975 c-7 -19 -30 -35 -51 -35 -21 0 -38 -9 -38 -20 0 -11 18
-12 45 -2 43 16 69 15 133 -1 15 -4 32 6 37 21 8 20 0 25 -25 15 -22 -9 -44
-1 -61 22 -25 33 -27 33 -40 0z"/>
<path d="M2121 1797 c-31 -34 -46 -38 -68 -20 -22 19 -31 17 -40 -6 -7 -19 0
-31 18 -31 16 0 29 -13 29 -28 0 -18 14 -25 40 -18 22 6 35 19 29 28 -6 10 -1
18 12 18 13 0 18 13 12 29 -19 49 23 55 49 7 l24 -45 17 46 c10 27 26 40 40
31 15 -9 18 -5 8 10 -11 17 -22 18 -41 2 -18 -15 -30 -15 -39 -1 -20 32 -45
25 -90 -22z"/>
<path d="M569 1801 c7 -10 -4 -28 -24 -39 -33 -20 -33 -21 1 -21 20 -1 31 -10
24 -21 -7 -11 -2 -20 11 -20 13 0 18 13 12 29 -6 17 -3 35 8 42 30 18 22 49
-12 49 -17 0 -26 -8 -20 -19z"/>
<path d="M1108 1771 c-7 -16 -6 -39 1 -50 8 -12 3 -21 -9 -21 -12 0 -17 -9
-10 -20 7 -11 -2 -26 -19 -32 -33 -13 -44 -68 -13 -68 27 0 105 169 82 177
-11 3 -15 15 -9 25 6 10 6 18 0 18 -7 0 -17 -13 -23 -29z"/>
<path d="M226 1742 c-2 -21 11 -35 30 -35 35 0 84 38 84 66 0 8 -10 5 -23 -8
-15 -15 -35 -17 -56 -6 -24 13 -33 9 -35 -17z"/>
<path d="M2340 1721 c0 -14 -12 -21 -27 -15 -17 7 -25 -5 -23 -32 4 -58 50
-68 51 -11 0 46 1 46 29 8 16 -21 34 -33 40 -28 6 6 -8 31 -30 57 -22 25 -40
35 -40 21z"/>
<path d="M335 1625 c-26 -29 -27 -39 -4 -60 30 -28 60 1 38 37 -8 12 -2 30 13
40 16 10 18 18 6 18 -12 0 -36 -16 -53 -35z"/>
<path d="M2030 1639 c-33 -13 -34 -16 -6 -18 22 0 31 -12 23 -31 -7 -19 1 -30
21 -30 18 0 32 -10 32 -21 0 -34 34 -4 46 41 7 27 0 40 -19 40 -16 0 -24 -9
-17 -20 7 -11 7 -20 1 -20 -7 0 -19 17 -27 37 -10 28 -24 33 -54 22z"/>
<path d="M532 1596 c-18 -20 -32 -48 -31 -61 0 -14 9 -9 21 10 11 19 42 35 68
35 32 0 45 9 39 27 -15 37 -60 33 -97 -11z"/>
<path d="M2191 1596 c4 -20 -1 -32 -10 -27 -37 23 -33 -41 5 -79 33 -33 38
-34 28 -6 -8 24 -4 31 17 23 16 -6 30 1 31 16 0 15 4 43 8 62 3 19 -2 30 -12
24 -10 -6 -18 -3 -18 6 0 10 -13 18 -28 18 -17 0 -26 -15 -21 -37z"/>
<path d="M3569 1578 c-8 -12 -2 -30 13 -40 39 -24 49 -22 78 12 30 36 -1 40
-39 5 -18 -17 -23 -17 -14 -1 18 30 -20 54 -38 24z"/>
<path d="M1792 1557 c10 -16 3 -19 -22 -10 -31 12 -32 10 -8 -20 26 -31 24
-31 -19 -9 -56 30 -122 13 -86 -23 34 -34 28 -55 -17 -55 -22 0 -40 -12 -40
-27 0 -14 -13 -26 -30 -26 -21 0 -26 14 -17 51 9 39 6 47 -11 31 -31 -29 -45
-109 -19 -109 11 0 6 -14 -12 -31 -17 -18 -31 -41 -31 -52 0 -10 -9 -14 -20
-7 -11 7 -20 3 -20 -9 0 -11 11 -21 25 -22 14 0 -4 -13 -39 -28 -34 -15 -92
-56 -127 -89 -74 -71 -85 -73 -119 -32 -14 17 -34 30 -45 30 -11 0 3 -18 31
-40 54 -43 105 -36 148 19 14 17 25 21 25 8 1 -29 69 -47 102 -27 14 9 20 29
13 46 -8 21 -1 27 27 19 34 -8 37 -2 27 49 -10 49 -2 65 41 93 l52 35 -11 -56
-12 -56 32 56 c18 31 27 73 20 95 -10 32 -1 42 47 51 47 10 58 21 52 54 -6 32
-3 36 16 17 18 -18 19 -33 1 -61 -31 -49 -15 -62 42 -35 38 17 46 35 42 92 -7
100 -8 101 -31 101 -12 0 -15 -11 -7 -23z"/>
<path d="M2001 1502 c-18 -33 -14 -37 24 -30 25 5 34 3 20 -3 -33 -16 -12 -49
32 -49 59 0 43 80 -16 81 -47 2 -47 3 -11 19 33 14 34 17 6 19 -19 0 -44 -16
-55 -37z"/>
<path d="M560 1481 c0 -10 10 -25 21 -32 12 -7 17 -26 11 -41 -6 -15 -2 -28 9
-28 10 0 19 10 19 22 0 14 18 18 44 11 39 -10 38 -6 -13 38 -60 51 -91 62 -91
30z"/>
<path d="M3633 1472 c-6 -17 3 -39 20 -49 22 -12 25 -22 10 -31 -28 -17 -30
-52 -4 -52 47 0 63 79 24 121 -32 35 -40 36 -50 11z"/>
<path d="M296 1449 c-23 -23 7 -69 46 -69 24 0 33 10 25 30 -6 16 -18 25 -27
20 -9 -6 -20 -1 -24 11 -4 12 -13 16 -20 8z"/>
<path d="M2486 1420 c-6 -23 -29 -41 -53 -43 -24 -1 -61 -5 -83 -8 -22 -4 -85
-13 -140 -20 -55 -7 -114 -21 -132 -30 -19 -10 -59 -10 -93 -1 -70 21 -134 -6
-87 -36 15 -10 21 -27 14 -38 -17 -28 42 -18 72 12 37 37 83 30 67 -11 -12
-33 -11 -33 21 -1 32 32 37 32 59 1 22 -29 25 -28 38 13 8 25 26 41 40 35 15
-5 36 0 48 12 12 12 28 17 34 10 7 -6 -6 -30 -27 -51 -57 -57 -78 -128 -32
-110 26 10 32 5 23 -19 -7 -18 -1 -36 14 -42 30 -11 19 60 -11 78 -25 15 -23
50 2 44 11 -3 32 18 46 45 43 85 242 81 294 -5 l39 -64 -12 72 c-7 43 -3 77
11 86 41 25 22 67 -41 89 -86 30 -99 28 -111 -18z"/>
<path d="M785 1392 c-22 -46 -15 -72 17 -72 9 0 12 18 8 40 -4 22 1 40 11 40
11 0 19 9 19 20 0 37 -33 20 -55 -28z"/>
<path d="M3378 1345 c-2 -19 -2 -41 -1 -49 2 -8 -12 -9 -31 -2 -22 9 -28 5
-18 -11 29 -46 72 -24 72 37 0 64 -18 84 -22 25z"/>
<path d="M3740 1350 c0 -16 11 -28 25 -25 14 3 24 -14 24 -38 -1 -26 8 -39 23
-33 40 15 50 67 19 97 -37 38 -91 37 -91 -1z"/>
<path d="M4150 1247 c-7 -64 -20 -157 -30 -207 -9 -49 -15 -92 -11 -95 8 -9
954 -108 960 -101 3 3 11 107 18 229 l12 224 -125 11 c-68 6 -232 16 -364 22
-132 6 -286 17 -343 23 l-104 11 -13 -117z m663 -120 c-6 -37 -2 -67 8 -67 10
0 12 -15 5 -33 -11 -29 -15 -27 -29 10 -16 43 -57 60 -57 24 0 -27 -66 0 -88
36 -14 24 -22 20 -44 -19 -15 -26 -27 -36 -27 -21 -1 23 -6 23 -33 2 -24 -21
-34 -21 -46 -2 -9 14 -24 24 -34 22 -39 -8 -48 2 -25 27 13 14 48 23 77 18 31
-4 67 6 85 24 40 40 75 41 75 2 0 -16 10 -30 21 -30 12 0 15 -10 7 -23 -9 -14
-5 -18 9 -9 13 8 23 30 23 49 0 43 40 85 65 70 11 -7 14 -42 8 -80z"/>
<path d="M3005 1275 c-12 -15 -14 -43 -3 -70 25 -67 45 -54 31 20 -11 59 -10
61 12 22 21 -36 29 -39 51 -15 21 23 20 28 -5 28 -17 0 -31 9 -31 20 0 28 -31
25 -55 -5z"/>
<path d="M5698 1275 c-10 -110 -14 -176 -26 -395 -7 -137 -18 -319 -24 -403
-7 -88 -4 -157 7 -164 21 -13 45 186 45 382 l0 124 150 -12 c102 -9 150 -6
150 9 0 12 -61 28 -140 35 -124 13 -140 19 -141 57 -1 23 -1 121 1 217 2 143
-13 247 -22 150z"/>
<path d="M1746 1266 c-23 -5 -54 -22 -68 -38 -21 -25 -16 -26 31 -8 30 11 63
15 73 9 10 -6 18 3 18 20 0 17 -2 30 -5 28 -3 -1 -25 -6 -49 -11z"/>
<path d="M3285 1247 c-14 -6 -25 -23 -25 -39 0 -15 -11 -28 -25 -28 -17 -1
-16 -6 4 -19 16 -10 36 -14 45 -9 8 6 10 -5 3 -24 -9 -23 -5 -30 15 -24 15 6
26 27 23 48 -3 21 -7 54 -9 73 -3 19 -5 34 -5 33 -1 0 -12 -6 -26 -11z"/>
<path d="M5471 1201 c-15 -23 16 -42 101 -62 63 -14 68 -11 68 33 0 50 -141
75 -169 29z"/>
<path d="M2386 1138 c1 -21 10 -38 18 -38 9 0 14 -8 11 -18 -3 -10 4 -19 14
-20 35 -4 21 104 -14 109 -21 3 -31 -8 -29 -33z"/>
<path d="M680 1139 c0 -12 9 -16 20 -9 11 7 20 -2 20 -19 0 -17 8 -31 18 -31
10 0 33 -5 50 -12 18 -7 32 -2 32 11 0 13 -11 17 -23 9 -16 -10 -20 -4 -11 18
8 22 3 29 -15 22 -15 -6 -33 -1 -40 11 -17 27 -51 27 -51 0z"/>
<path d="M3755 1147 c32 -13 -18 -67 -63 -67 -28 0 -27 -5 3 -41 l35 -40 19
45 c27 66 31 68 52 35 17 -25 21 -25 39 1 34 52 22 71 -45 75 -36 1 -54 -2
-40 -8z"/>
<path d="M2 971 c-4 -161 -2 -167 37 -157 37 10 38 14 11 34 -25 17 -30 51
-24 148 4 70 1 130 -7 135 -7 4 -15 -68 -17 -160z"/>
<path d="M470 1124 c-30 -21 -34 -65 -5 -59 14 3 25 -8 25 -25 0 -16 -13 -27
-30 -24 -24 6 -25 2 -5 -18 19 -20 32 -16 65 21 48 56 49 63 12 49 -18 -7 -31
4 -35 30 -4 23 -16 35 -27 26z"/>
<path d="M2952 1049 c-6 -17 -4 -26 6 -20 10 6 24 -4 31 -22 9 -25 18 -28 35
-11 16 16 16 30 -3 53 -33 39 -54 39 -69 0z"/>
<path d="M680 1049 c0 -6 22 -33 49 -60 50 -50 111 -66 111 -29 0 11 -13 20
-30 20 -16 0 -30 9 -30 20 0 11 -13 20 -30 20 -16 0 -30 9 -30 20 0 11 -9 20
-20 20 -11 0 -20 -5 -20 -11z"/>
<path d="M2008 988 c7 -17 12 -39 12 -48 0 -9 31 -16 69 -16 37 0 78 -6 90
-13 11 -7 21 -4 21 7 0 25 -89 51 -117 34 -10 -6 -23 6 -29 28 -6 22 -21 40
-34 40 -14 0 -19 -14 -12 -32z"/>
<path d="M599 979 c-23 -15 -24 -18 -2 -19 16 0 22 -12 16 -30 -8 -20 1 -30
28 -30 45 0 48 16 12 64 -17 23 -34 27 -54 15z"/>
<path d="M920 934 c0 -14 18 -27 40 -29 23 -1 40 10 40 26 0 16 -18 29 -40 29
-22 0 -40 -12 -40 -26z"/>
<path d="M2985 920 c-30 -48 -32 -67 -5 -50 11 7 20 -6 20 -29 0 -23 14 -48
31 -54 47 -18 58 7 20 45 -20 20 -31 54 -26 81 11 57 -7 61 -40 7z"/>
<path d="M2340 917 c0 -11 -17 -14 -38 -8 -46 15 -79 -26 -40 -50 20 -12 15
-16 -16 -14 -24 2 -40 9 -35 16 4 8 -28 -4 -72 -26 -87 -43 -100 -57 -39 -41
31 8 38 3 28 -22 -8 -22 -1 -32 22 -32 21 0 30 11 23 28 -6 16 4 34 21 41 23
9 28 2 20 -30 -9 -34 -4 -38 31 -28 34 11 39 7 30 -27 -7 -28 1 -44 27 -50 41
-11 52 15 17 37 -14 8 -10 26 13 51 27 30 28 38 6 38 -18 1 -20 6 -7 15 12 8
28 31 35 51 8 20 23 31 34 24 11 -7 20 0 20 15 0 14 -18 28 -40 30 -22 1 -40
-7 -40 -18z"/>
<path d="M3320 900 c17 -11 21 -20 10 -21 -11 -1 -2 -9 20 -18 22 -9 47 -12
56 -7 27 16 -29 66 -73 66 -35 -1 -38 -4 -13 -20z"/>
<path d="M420 869 c0 -16 13 -35 30 -42 16 -6 25 -19 20 -28 -6 -9 -2 -22 10
-29 31 -19 24 43 -9 76 -16 16 -24 35 -17 42 7 6 2 12 -11 12 -12 0 -23 -14
-23 -31z"/>
<path d="M1350 866 c-65 -16 -85 -43 -76 -101 7 -43 4 -48 -12 -25 -27 38 -29
-6 -3 -70 13 -33 19 -26 30 40 23 130 27 138 61 110 16 -13 24 -34 17 -45 -7
-11 0 -16 15 -11 15 5 31 26 35 46 5 27 -1 33 -28 22 -29 -11 -31 -8 -9 18 14
16 22 29 17 28 -4 -2 -25 -7 -47 -12z"/>
<path d="M1124 800 c21 -33 19 -44 -14 -69 -39 -29 -39 -30 4 -30 25 -1 54 17
67 41 14 26 15 38 2 30 -11 -7 -26 6 -33 28 -7 22 -21 40 -32 40 -10 0 -7 -18
6 -40z"/>
<path d="M312 709 c4 -52 12 -100 18 -105 17 -18 10 144 -8 173 -10 17 -14
-10 -10 -68z"/>
<path d="M2489 568 c1 -24 8 -51 16 -60 8 -8 15 -31 15 -51 0 -20 7 -37 16
-37 28 0 15 101 -16 120 -16 11 -20 20 -8 20 12 0 21 12 21 27 0 14 -10 26
-22 26 -13 0 -22 -20 -22 -45z"/>
<path d="M900 557 c0 -13 -15 -40 -33 -60 -24 -27 -26 -37 -7 -37 30 0 78 58
79 95 1 14 -8 25 -19 25 -11 0 -20 -11 -20 -23z"/>
<path d="M1344 509 c-15 -17 -35 -25 -45 -18 -10 6 -13 -3 -6 -21 6 -17 17
-27 22 -22 19 19 86 -30 72 -52 -8 -14 -4 -16 13 -6 20 13 16 25 -19 53 -38
31 -40 38 -13 49 18 7 32 20 32 30 0 27 -27 20 -56 -13z"/>
<path d="M2340 532 c0 -7 8 -28 18 -47 9 -19 31 -66 48 -105 25 -58 32 -64 44
-34 9 22 3 49 -18 71 -17 20 -32 46 -32 57 0 12 -13 32 -30 46 -16 14 -30 19
-30 12z"/>
<path d="M247 467 c7 -13 -1 -28 -17 -34 -17 -7 -30 -22 -30 -35 0 -12 12 -18
28 -12 15 6 52 -2 82 -18 81 -42 80 -25 -3 53 -40 38 -67 59 -60 46z"/>
<path d="M1740 472 c0 -4 32 -27 70 -49 39 -23 70 -33 70 -22 0 10 -9 19 -20
19 -11 0 -20 14 -20 30 0 19 -19 30 -50 30 -27 0 -50 -4 -50 -8z"/>
<path d="M2271 441 c-7 -11 -27 -13 -46 -6 -30 11 -30 9 -4 -19 16 -18 32 -29
37 -25 4 4 24 -1 45 -12 26 -14 37 -14 37 2 0 34 -56 82 -69 60z"/>
<path d="M2481 375 c-1 -52 8 -95 19 -95 32 0 31 104 -1 160 -12 20 -18 -1
-18 -65z"/>
<path d="M1254 407 c-24 -24 -15 -42 25 -53 22 -5 49 2 61 16 17 21 14 26 -14
21 -20 -3 -41 3 -47 12 -7 10 -18 11 -25 4z"/>
<path d="M1502 364 c-12 -22 -12 -47 -1 -65 18 -28 29 -5 22 45 -2 8 11 9 27
3 19 -7 30 1 30 21 0 43 -54 41 -78 -4z"/>
<path d="M307 318 c17 -24 28 -53 25 -65 -3 -13 -2 -16 3 -8 5 8 35 15 67 15
39 0 58 10 58 31 0 17 9 26 20 19 11 -7 15 1 8 17 -13 36 -88 19 -88 -19 0
-40 -26 -34 -55 12 -14 22 -35 40 -46 40 -12 0 -8 -18 8 -42z"/>
<path d="M575 326 c-19 -5 -35 -17 -35 -26 0 -9 -14 -31 -31 -49 -29 -28 -27
-31 18 -31 33 0 55 -14 63 -41 10 -29 24 -38 47 -28 18 7 49 18 68 24 19 5 35
17 35 25 0 26 -54 38 -74 18 -26 -26 -91 1 -78 33 5 15 -1 31 -14 36 -13 5 -8
11 11 11 19 1 35 11 35 22 0 11 -2 19 -5 18 -3 -2 -21 -7 -40 -12z"/>
<path d="M1194 314 c-5 -15 -3 -39 5 -53 23 -36 105 -6 97 36 -8 41 -87 55
-102 17z"/>
<path d="M2217 327 c-15 -79 -6 -207 16 -207 18 0 19 -17 6 -63 l-18 -64 41
44 40 44 -42 54 c-35 44 -38 57 -16 74 34 26 34 115 1 126 -14 5 -26 1 -28 -8z"/>
<path d="M13 270 c3 -22 7 -46 7 -54 0 -8 14 -10 30 -3 17 6 30 2 30 -10 0
-12 16 -16 35 -9 19 7 28 5 20 -4 -16 -18 59 -90 95 -90 13 0 34 23 47 51 13
28 16 47 6 41 -37 -23 -254 54 -269 96 -5 12 -5 4 -1 -18z"/>
<path d="M1620 299 c20 -12 22 -18 5 -19 -14 0 -25 -10 -25 -23 0 -13 6 -18
13 -11 7 8 25 4 38 -7 18 -15 29 -15 38 0 8 12 3 21 -10 21 -13 0 -19 12 -13
26 6 16 -7 27 -33 29 -34 3 -36 -1 -13 -16z"/>
<path d="M2095 291 c-38 -28 -46 -82 -15 -101 19 -12 29 17 21 58 -2 10 8 25
22 34 14 9 22 20 16 25 -5 5 -25 -2 -44 -16z"/>
<path d="M962 220 c-2 -45 31 -87 56 -71 31 19 27 51 -6 51 -16 0 -33 11 -39
25 -7 17 -10 15 -11 -5z"/>
<path d="M1447 209 c-6 -14 -22 -22 -35 -17 -14 5 -25 -4 -25 -21 0 -36 24
-41 44 -9 7 12 31 17 53 11 22 -6 35 -5 28 1 -6 7 2 22 19 34 24 18 21 23 -22
25 -29 2 -56 -9 -62 -24z"/>
<path d="M4195 226 c-26 -7 -35 -29 -35 -87 0 -65 6 -76 34 -65 21 8 25 16 10
21 -13 5 -24 18 -24 29 0 21 100 14 228 -16 37 -9 53 -7 45 7 -14 22 -123 51
-183 48 -22 -1 -29 3 -15 9 14 6 25 24 25 40 0 28 -19 31 -85 14z"/>
<path d="M830 206 c-49 -12 -90 -44 -90 -70 0 -10 11 -12 25 -3 17 10 16 4 -2
-19 -19 -23 -21 -34 -5 -34 13 0 28 14 35 30 6 17 25 30 42 30 18 0 26 6 19
13 -8 7 -4 25 9 40 12 15 19 26 14 25 -4 -2 -25 -7 -47 -12z"/>
<path d="M4534 167 c-21 -21 -17 -91 5 -78 10 6 24 3 31 -9 7 -11 36 -20 65
-20 50 0 51 1 14 28 -21 16 -44 25 -52 20 -7 -4 -11 7 -10 25 3 35 -31 57 -53
34z"/>
<path d="M2980 99 c89 -76 162 -120 125 -75 -13 16 -19 36 -11 43 7 7 0 13
-16 13 -16 0 -40 18 -53 40 -14 22 -46 40 -70 39 -41 0 -39 -5 25 -60z"/>
<path d="M280 110 c0 -41 92 -97 140 -84 22 6 35 2 29 -8 -6 -10 18 -18 54
-18 70 0 28 58 -43 59 -17 1 -64 19 -105 41 -62 33 -75 35 -75 10z"/>
<path d="M1548 107 c7 -17 3 -44 -9 -58 -14 -18 -15 -29 0 -38 12 -8 21 0 21
16 0 16 10 33 21 37 26 8 3 76 -25 76 -11 0 -15 -15 -8 -33z"/>
<path d="M4748 105 c9 -16 3 -25 -17 -25 -17 0 -31 -9 -31 -20 0 -11 25 -20
56 -20 31 0 65 -9 75 -19 11 -11 30 -13 44 -4 18 11 14 24 -15 49 -24 20 -40
24 -40 11 0 -13 -20 -6 -43 15 -24 21 -37 27 -29 13z"/>
<path d="M4929 45 c5 -38 173 -56 229 -25 17 9 -17 15 -79 15 -61 0 -111 10
-115 23 -12 36 -41 25 -35 -13z"/>
</g>
</svg>
