<!DOCTYPE svg PUBLIC "-//W3C//DTD SVG 20010904//EN" "http://www.w3.org/TR/2001/REC-SVG-20010904/DTD/svg10.dtd">
<svg version="1.0" xmlns="http://www.w3.org/2000/svg" viewBox="0 0 7900 1900" preserveAspectRatio="xMidYMid meet">
  <defs>
    <radialGradient id="grad1" cx="50%" cy="50%" r="50%" fx="50%" fy="50%">
      <stop offset="0%" style="stop-color:rgb(255,255,255);
      stop-opacity:0" />
      <stop offset="100%" style="stop-color:rgb(0,0,255);stop-opacity:1" />
    </radialGradient>
  </defs>

<g id="layer4" fill="url(#grad1)" stroke="none">
 <path d="M1681 1749 c-206 -40 -235 -193 -65 -348 31 -28 82 -66 114 -83 54 -31 59 -36 73 -88 28 -100 146 -253 258 -336 52 -38 80 -42 156 -19 64 19 133 89 133 135 0 31 -60 163 -80 175 -6 4 -38 -22 -73 -58 -45 -47 -75 -68 -112 -81 -49 -16 -50 -16 -67 5 -26 31 -42 92 -34 133 7 37 46 76 75 76 10 0 26 7 37 15 18 14 16 17 -44 76 -62 61 -63 62 -107 55 -25 -3 -64 -15 -87 -27 l-42 -22 -38 43 c-94 106 -52 164 127 177 95 7 163 -10 268 -64 80 -43 104 -36 66 19 -74 106 -124 165 -153 180 -78 40 -289 60 -405 37z"/>
 <path d="M2165 1751 c-11 -19 156 -283 331 -523 51 -71 87 -128 80 -128 -8 0 -44 9 -81 21 -85 26 -98 17 -62 -43 14 -24 34 -51 45 -61 21 -19 344 -141 403 -152 23 -4 39 -3 44 4 3 6 -19 52 -51 101 -31 50 -55 92 -53 94 2 2 37 -20 78 -50 84 -62 261 -154 296 -154 12 0 34 9 48 20 56 44 42 164 -35 320 -50 100 -142 198 -283 303 -111 82 -141 87 -208 30 -24 -21 -53 -43 -63 -50 -17 -10 -13 -17 56 -88 l75 -77 45 7 c25 4 62 9 82 12 l37 5 21 -71 c22 -70 32 -192 17 -207 -9 -10 -40 19 -209 200 -148 159 -230 255 -297 351 l-42 59 -121 43 c-127 45 -143 49 -153 34z"/>
 <path d="M895 1726 c-22 -7 -55 -21 -74 -30 -32 -17 -33 -20 -27 -59 10 -58 18 -63 74 -48 110 30 290 21 417 -21 44 -15 50 -28 85 -198 17 -86 41 -300 34 -309 -7 -9 -76 44 -131 101 -70 74 -122 152 -170 255 -22 48 -42 77 -56 82 -41 15 -180 32 -190 22 -5 -5 13 -66 46 -152 54 -142 106 -324 94 -335 -11 -11 -46 17 -138 114 -52 54 -128 147 -169 206 -41 59 -82 116 -90 127 -19 24 -186 57 -203 40 -8 -8 6 -44 45 -123 95 -190 114 -270 83 -343 -22 -55 -42 -56 -90 -3 -43 47 -115 174 -115 201 0 11 12 17 37 19 20 2 38 8 40 13 2 6 -26 32 -61 58 -66 48 -106 58 -147 37 -45 -25 -5 -141 87 -257 103 -128 253 -263 293 -263 96 0 201 99 201 190 0 16 3 30 6 30 3 0 28 -20 55 -44 100 -90 204 -144 316 -166 91 -18 93 -16 93 85 0 47 3 85 6 85 3 0 19 -10 36 -21 65 -47 292 -127 323 -115 19 7 27 115 15 210 -16 131 -60 239 -154 379 l-81 122 -88 43 c-152 74 -302 100 -402 68z"/>
 <path d="M3192 1703 c-12 -3 -41 -21 -62 -42 -66 -62 -55 -125 37 -212 100 -96 236 -167 373 -195 67 -13 112 -15 215 -10 l130 6 130 -130 c71 -71 127 -131 125 -134 -3 -2 -52 2 -110 10 -67 9 -108 10 -114 4 -6 -6 1 -23 21 -47 26 -33 41 -41 119 -62 120 -32 315 -36 356 -7 56 37 54 75 -11 416 -23 118 -45 232 -49 254 l-7 38 -114 35 c-63 18 -120 32 -128 29 -19 -8 -17 -29 17 -146 17 -58 30 -111 30 -119 0 -12 -22 -13 -134 -8 l-133 7 -133 100 c-238 178 -406 242 -558 213z m295 -132 c34 -10 233 -159 233 -175 0 -9 -224 -1 -288 11 -41 7 -82 58 -89 111 -4 33 -2 40 18 49 30 14 84 16 126 4z m708 -375 c9 -54 14 -100 11 -103 -5 -5 -187 161 -194 176 -3 8 151 38 160 31 3 -3 14 -49 23 -104z"/>
 </g>

</svg>
